Coordinates
version=1
nRows=16
nColumns=30
inDegrees=yes

Units are S.I. units (second, meters, Newtons, ...)
Angles are in degrees.

endheader
time	floatyaw	floatroll	floatpitch	floatx	floaty	floatz	pro_sup_l	deviation_l	flexion_l	cmc_flexion_l	cmc_abduction_l	mp_flexion_l	ip_flexion_l	2mcp_flexion_l	2mcp_abduction_l	2pm_flexion_l	2md_flexion_l	3mcp_flexion_l	3mcp_abduction_l	3pm_flexion_l	3md_flexion_l	4mcp_flexion_l	4mcp_abduction_l	4pm_flexion_l	4md_flexion_l	5mcp_flexion_l	5mcp_abduction_l	5pm_flexion_l	5md_flexion_l
0.005000	-1.071121	-4.178315	93.848517	0.168157	-0.273712	0.171075	112.278966	22.029221	23.506398	-1.955925	36.747142	-20.897470	-34.332995	55.446701	12.736974	38.342322	48.801430	45.615228	6.798035	49.638598	61.821026	40.961386	-6.698847	71.126731	63.339969	22.158508	-10.400182	68.442574	56.533917
0.015000	-1.071121	-4.178315	93.848517	0.167771	-0.272983	0.170657	111.983551	21.745810	23.152834	-1.145886	37.093609	-21.125302	-37.147052	55.505447	12.815095	39.031630	50.070334	45.436147	6.766224	50.475177	62.848775	40.672219	-6.767266	71.760093	64.298305	21.836897	-10.396642	68.787998	56.984055
0.025000	-1.071121	-4.178315	93.848517	0.167339	-0.272266	0.170240	111.704837	21.468900	22.782898	-0.425672	37.449170	-21.236524	-39.899831	55.539936	12.897542	39.733558	51.240827	45.280801	6.743833	51.276574	63.784289	40.438778	-6.826835	72.386069	65.197378	21.569570	-10.402981	69.175753	57.415615
0.035000	-1.071121	-4.178315	93.848517	0.166882	-0.271591	0.169823	111.438842	21.200807	22.422727	0.172077	37.775486	-21.228428	-42.461825	55.553766	12.978926	40.405042	52.254250	45.151154	6.729503	52.005446	64.600378	40.258037	-6.875922	72.981077	66.008883	21.357393	-10.415176	69.579599	57.812150
0.045000	-1.071121	-4.178315	93.848517	0.166418	-0.270991	0.169411	111.186431	20.946099	22.097690	0.635892	38.041990	-21.118740	-44.724289	55.548740	13.053364	40.994282	53.087795	45.043465	6.721488	52.619439	65.294984	40.117542	-6.913904	73.517071	66.720920	21.191110	-10.428256	69.960989	58.165526
0.055000	-1.071121	-4.178315	93.848517	0.165960	-0.270502	0.169016	110.955025	20.712095	21.825718	0.974218	38.233610	-20.942687	-46.611818	55.526783	13.115927	41.453769	53.752271	44.951150	6.718066	53.083817	65.880783	40.001053	-6.941397	73.967330	67.333124	21.056524	-10.437679	70.278065	58.473166
0.065000	-1.071121	-4.178315	93.848517	0.165518	-0.270145	0.168658	110.756847	20.507284	21.613389	1.208775	38.353299	-20.743486	-48.087737	55.492569	13.163965	41.755010	54.277232	44.869193	6.717713	53.383737	66.371323	39.895458	-6.960063	74.312483	67.848945	20.941780	-10.440501	70.496538	58.734584
0.075000	-1.071121	-4.178315	93.848517	0.165104	-0.269920	0.168362	110.604357	20.338447	21.456275	1.366178	38.418682	-20.560021	-49.155916	55.454451	13.197887	41.899635	54.692185	44.797174	6.719188	53.531378	66.772587	39.795679	-6.972152	74.546306	68.271033	20.842731	-10.435930	70.600531	58.949272
0.085000	-1.071121	-4.178315	93.848517	0.164733	-0.269807	0.168148	110.504577	20.207974	21.343223	1.471529	38.454829	-20.417107	-49.860427	55.422089	13.220756	41.921755	55.013157	44.738272	6.721579	53.565110	67.082881	39.704691	-6.979990	74.680207	68.601289	20.762555	-10.425300	70.600330	59.116028
0.095000	-1.071121	-4.178315	93.848517	0.164419	-0.269771	0.168025	110.454794	20.112823	21.262293	1.545142	38.486065	-20.322001	-50.279446	55.402036	13.236744	41.878986	55.240472	44.695025	6.724289	53.540026	67.298604	39.628928	-6.985583	74.743355	68.843265	20.705720	-10.411617	70.532874	59.233163
0.105000	-1.071121	-4.178315	93.848517	0.164179	-0.269776	0.167983	110.442067	20.045655	21.205200	1.601374	38.529244	-20.267271	-50.509563	55.394527	13.249384	41.834579	55.367465	44.665483	6.726943	53.512301	67.421471	39.572415	-6.990389	74.775736	69.004262	20.670887	-10.398648	70.452384	59.299541
0.115000	-1.071121	-4.178315	93.848517	0.164020	-0.269793	0.167998	110.447442	19.997433	21.168167	1.648383	38.590076	-20.237611	-50.642906	55.393950	13.260653	41.837290	55.394092	44.642768	6.729281	53.523042	67.463361	39.533274	-6.995233	74.815287	69.096272	20.648217	-10.389525	70.412569	59.316558
0.125000	-1.071121	-4.178315	93.848517	0.163935	-0.269807	0.168039	110.453179	19.960077	21.149492	1.688832	38.663232	-20.217573	-50.746033	55.392673	13.271062	41.906598	55.337394	44.618135	6.731089	53.587938	67.446863	39.503950	-7.000331	74.884727	69.136240	20.623108	-10.385241	70.446233	59.290779
0.135000	-1.071121	-4.178315	93.848517	0.163909	-0.269813	0.168081	110.449313	19.928016	21.146203	1.721870	38.735972	-20.197621	-50.850098	55.385585	13.280217	42.029050	55.233259	44.585133	6.732194	53.696576	67.401658	39.474189	-7.005426	74.984826	69.145568	20.583595	-10.383872	70.550933	59.236302
0.145000	-1.071121	-4.178315	93.848517	0.163912	-0.269815	0.168115	110.436179	19.898386	21.152374	1.745904	38.794019	-20.176447	-50.955794	55.372505	13.287361	42.167571	55.128321	44.542274	6.732522	53.821171	67.358178	39.434992	-7.010033	75.097689	69.147784	20.526432	-10.381195	70.688964	59.174838
0.155000	-1.071121	-4.178315	93.848517	0.163919	-0.269817	0.168142	110.421807	19.870365	21.160166	1.760866	38.827719	-20.158845	-51.048796	55.357500	13.291797	42.280041	55.065031	44.493052	6.732173	53.930658	67.340225	39.382066	-7.013722	75.198096	69.163501	20.458253	-10.372663	70.804412	59.131149
